<mxfile host="app.diagrams.net" modified="2023-05-03T08:26:37.722Z" agent="Mozilla/5.0 (Windows NT 10.0; Win64; x64) AppleWebKit/537.36 (KHTML, like Gecko) Chrome/112.0.0.0 Safari/537.36" etag="Bce5l21Kjz8jUHz5YJ--" version="21.2.6" type="device">
  <diagram id="C5RBs43oDa-KdzZeNtuy" name="Page-1">
    <mxGraphModel dx="451" dy="561" grid="1" gridSize="10" guides="1" tooltips="1" connect="1" arrows="1" fold="1" page="1" pageScale="1" pageWidth="827" pageHeight="1169" math="0" shadow="0">
      <root>
        <mxCell id="WIyWlLk6GJQsqaUBKTNV-0" />
        <mxCell id="WIyWlLk6GJQsqaUBKTNV-1" parent="WIyWlLk6GJQsqaUBKTNV-0" />
        <mxCell id="JWl9mlSEb8S9jE6WVAzB-2" value="" style="edgeStyle=none;curved=1;rounded=0;orthogonalLoop=1;jettySize=auto;html=1;fontSize=12;startSize=8;endSize=8;" parent="WIyWlLk6GJQsqaUBKTNV-1" source="JWl9mlSEb8S9jE6WVAzB-0" target="JWl9mlSEb8S9jE6WVAzB-1" edge="1">
          <mxGeometry relative="1" as="geometry" />
        </mxCell>
        <mxCell id="JWl9mlSEb8S9jE6WVAzB-0" value="main" style="ellipse;whiteSpace=wrap;html=1;fontSize=16;" parent="WIyWlLk6GJQsqaUBKTNV-1" vertex="1">
          <mxGeometry x="160" y="30" width="120" height="50" as="geometry" />
        </mxCell>
        <mxCell id="H0IVHoSx6dTqdpk7Pmhy-3" value="" style="edgeStyle=none;curved=1;rounded=0;orthogonalLoop=1;jettySize=auto;html=1;fontSize=12;startSize=8;endSize=8;" parent="WIyWlLk6GJQsqaUBKTNV-1" source="JWl9mlSEb8S9jE6WVAzB-1" target="H0IVHoSx6dTqdpk7Pmhy-2" edge="1">
          <mxGeometry relative="1" as="geometry" />
        </mxCell>
        <mxCell id="JWl9mlSEb8S9jE6WVAzB-1" value="rufe welcomeUser auf" style="rounded=1;whiteSpace=wrap;html=1;fontSize=16;" parent="WIyWlLk6GJQsqaUBKTNV-1" vertex="1">
          <mxGeometry x="160" y="130" width="120" height="50" as="geometry" />
        </mxCell>
        <mxCell id="JWl9mlSEb8S9jE6WVAzB-6" value="" style="edgeStyle=none;curved=1;rounded=0;orthogonalLoop=1;jettySize=auto;html=1;fontSize=12;startSize=8;endSize=8;" parent="WIyWlLk6GJQsqaUBKTNV-1" source="JWl9mlSEb8S9jE6WVAzB-3" target="JWl9mlSEb8S9jE6WVAzB-5" edge="1">
          <mxGeometry relative="1" as="geometry" />
        </mxCell>
        <mxCell id="JWl9mlSEb8S9jE6WVAzB-3" value="setze gameMode auf die Rückgabe von gameModeSelection" style="rounded=1;whiteSpace=wrap;html=1;fontSize=16;" parent="WIyWlLk6GJQsqaUBKTNV-1" vertex="1">
          <mxGeometry x="30" y="430" width="160" height="70" as="geometry" />
        </mxCell>
        <mxCell id="JWl9mlSEb8S9jE6WVAzB-8" value="" style="edgeStyle=none;curved=1;rounded=0;orthogonalLoop=1;jettySize=auto;html=1;fontSize=12;startSize=8;endSize=8;" parent="WIyWlLk6GJQsqaUBKTNV-1" source="JWl9mlSEb8S9jE6WVAzB-5" target="JWl9mlSEb8S9jE6WVAzB-7" edge="1">
          <mxGeometry relative="1" as="geometry" />
        </mxCell>
        <mxCell id="JWl9mlSEb8S9jE6WVAzB-5" value="rufe selectStartingPlayer auf und gebe die Rückgabe an currentPlayer" style="whiteSpace=wrap;html=1;fontSize=16;rounded=1;" parent="WIyWlLk6GJQsqaUBKTNV-1" vertex="1">
          <mxGeometry x="30" y="530" width="160" height="90" as="geometry" />
        </mxCell>
        <mxCell id="JWl9mlSEb8S9jE6WVAzB-10" value="" style="edgeStyle=none;curved=1;rounded=0;orthogonalLoop=1;jettySize=auto;html=1;fontSize=12;startSize=8;endSize=8;" parent="WIyWlLk6GJQsqaUBKTNV-1" source="JWl9mlSEb8S9jE6WVAzB-7" target="JWl9mlSEb8S9jE6WVAzB-9" edge="1">
          <mxGeometry relative="1" as="geometry" />
        </mxCell>
        <mxCell id="JWl9mlSEb8S9jE6WVAzB-7" value="rufe shooting auf und warte bis eine winningID zurückgegeben wird" style="whiteSpace=wrap;html=1;fontSize=16;rounded=1;" parent="WIyWlLk6GJQsqaUBKTNV-1" vertex="1">
          <mxGeometry x="135" y="670" width="160" height="80" as="geometry" />
        </mxCell>
        <mxCell id="H0IVHoSx6dTqdpk7Pmhy-11" value="" style="edgeStyle=none;curved=1;rounded=0;orthogonalLoop=1;jettySize=auto;html=1;fontSize=12;startSize=8;endSize=8;" parent="WIyWlLk6GJQsqaUBKTNV-1" source="JWl9mlSEb8S9jE6WVAzB-9" target="H0IVHoSx6dTqdpk7Pmhy-10" edge="1">
          <mxGeometry relative="1" as="geometry" />
        </mxCell>
        <mxCell id="JWl9mlSEb8S9jE6WVAzB-9" value="gebe diese winningID an battleEnd weiter&amp;nbsp;" style="whiteSpace=wrap;html=1;fontSize=16;rounded=1;" parent="WIyWlLk6GJQsqaUBKTNV-1" vertex="1">
          <mxGeometry x="145" y="780" width="140" height="60" as="geometry" />
        </mxCell>
        <mxCell id="H0IVHoSx6dTqdpk7Pmhy-4" value="false" style="edgeStyle=none;curved=1;rounded=0;orthogonalLoop=1;jettySize=auto;html=1;exitX=0.5;exitY=1;exitDx=0;exitDy=0;entryX=0.5;entryY=0;entryDx=0;entryDy=0;fontSize=12;startSize=8;endSize=8;" parent="WIyWlLk6GJQsqaUBKTNV-1" source="H0IVHoSx6dTqdpk7Pmhy-0" target="JWl9mlSEb8S9jE6WVAzB-3" edge="1">
          <mxGeometry relative="1" as="geometry" />
        </mxCell>
        <mxCell id="H0IVHoSx6dTqdpk7Pmhy-5" value="true" style="edgeStyle=none;curved=1;rounded=0;orthogonalLoop=1;jettySize=auto;html=1;fontSize=12;startSize=8;endSize=8;exitX=0.5;exitY=1;exitDx=0;exitDy=0;entryX=0.5;entryY=0;entryDx=0;entryDy=0;" parent="WIyWlLk6GJQsqaUBKTNV-1" source="H0IVHoSx6dTqdpk7Pmhy-0" target="H0IVHoSx6dTqdpk7Pmhy-6" edge="1">
          <mxGeometry relative="1" as="geometry">
            <mxPoint x="330" y="420" as="targetPoint" />
          </mxGeometry>
        </mxCell>
        <mxCell id="H0IVHoSx6dTqdpk7Pmhy-0" value="load ==True" style="rhombus;whiteSpace=wrap;html=1;fontSize=16;" parent="WIyWlLk6GJQsqaUBKTNV-1" vertex="1">
          <mxGeometry x="180" y="300" width="80" height="80" as="geometry" />
        </mxCell>
        <mxCell id="H0IVHoSx6dTqdpk7Pmhy-7" style="edgeStyle=none;curved=1;rounded=0;orthogonalLoop=1;jettySize=auto;html=1;exitX=0.5;exitY=1;exitDx=0;exitDy=0;entryX=0.5;entryY=0;entryDx=0;entryDy=0;fontSize=12;startSize=8;endSize=8;" parent="WIyWlLk6GJQsqaUBKTNV-1" source="H0IVHoSx6dTqdpk7Pmhy-2" target="H0IVHoSx6dTqdpk7Pmhy-0" edge="1">
          <mxGeometry relative="1" as="geometry" />
        </mxCell>
        <mxCell id="H0IVHoSx6dTqdpk7Pmhy-2" value="Abfrage, ob ein alter Spielstand geladen werden soll" style="rounded=1;whiteSpace=wrap;html=1;fontSize=16;" parent="WIyWlLk6GJQsqaUBKTNV-1" vertex="1">
          <mxGeometry x="155" y="200" width="130" height="70" as="geometry" />
        </mxCell>
        <mxCell id="H0IVHoSx6dTqdpk7Pmhy-9" style="edgeStyle=none;curved=1;rounded=0;orthogonalLoop=1;jettySize=auto;html=1;fontSize=12;startSize=8;endSize=8;exitX=0.402;exitY=0.988;exitDx=0;exitDy=0;exitPerimeter=0;entryX=0.994;entryY=0.144;entryDx=0;entryDy=0;entryPerimeter=0;" parent="WIyWlLk6GJQsqaUBKTNV-1" source="H0IVHoSx6dTqdpk7Pmhy-21" edge="1" target="JWl9mlSEb8S9jE6WVAzB-7">
          <mxGeometry relative="1" as="geometry">
            <mxPoint x="320" y="620" as="sourcePoint" />
            <mxPoint x="270" y="660" as="targetPoint" />
          </mxGeometry>
        </mxCell>
        <mxCell id="H0IVHoSx6dTqdpk7Pmhy-22" value="" style="edgeStyle=none;curved=1;rounded=0;orthogonalLoop=1;jettySize=auto;html=1;fontSize=12;startSize=8;endSize=8;" parent="WIyWlLk6GJQsqaUBKTNV-1" source="H0IVHoSx6dTqdpk7Pmhy-6" target="H0IVHoSx6dTqdpk7Pmhy-21" edge="1">
          <mxGeometry relative="1" as="geometry" />
        </mxCell>
        <mxCell id="H0IVHoSx6dTqdpk7Pmhy-6" value="board, Spielernamen und Schiffe aus der Json-Datei laden in data" style="rounded=1;whiteSpace=wrap;html=1;fontSize=16;" parent="WIyWlLk6GJQsqaUBKTNV-1" vertex="1">
          <mxGeometry x="285" y="430" width="120" height="120" as="geometry" />
        </mxCell>
        <mxCell id="H0IVHoSx6dTqdpk7Pmhy-8" style="edgeStyle=none;curved=1;rounded=0;orthogonalLoop=1;jettySize=auto;html=1;exitX=0.25;exitY=1;exitDx=0;exitDy=0;fontSize=12;startSize=8;endSize=8;" parent="WIyWlLk6GJQsqaUBKTNV-1" source="JWl9mlSEb8S9jE6WVAzB-9" target="JWl9mlSEb8S9jE6WVAzB-9" edge="1">
          <mxGeometry relative="1" as="geometry" />
        </mxCell>
        <mxCell id="H0IVHoSx6dTqdpk7Pmhy-13" value="" style="edgeStyle=none;curved=1;rounded=0;orthogonalLoop=1;jettySize=auto;html=1;fontSize=12;startSize=8;endSize=8;" parent="WIyWlLk6GJQsqaUBKTNV-1" source="H0IVHoSx6dTqdpk7Pmhy-10" target="H0IVHoSx6dTqdpk7Pmhy-12" edge="1">
          <mxGeometry relative="1" as="geometry" />
        </mxCell>
        <mxCell id="H0IVHoSx6dTqdpk7Pmhy-10" value="Board, Spielernamen und Schiffe leeren&amp;nbsp;" style="rounded=1;whiteSpace=wrap;html=1;fontSize=16;" parent="WIyWlLk6GJQsqaUBKTNV-1" vertex="1">
          <mxGeometry x="155" y="890" width="120" height="70" as="geometry" />
        </mxCell>
        <mxCell id="H0IVHoSx6dTqdpk7Pmhy-12" value="Die Json-Datei mit leeren Werten überschreiben" style="whiteSpace=wrap;html=1;fontSize=16;rounded=1;" parent="WIyWlLk6GJQsqaUBKTNV-1" vertex="1">
          <mxGeometry x="155" y="1000" width="120" height="80" as="geometry" />
        </mxCell>
        <mxCell id="H0IVHoSx6dTqdpk7Pmhy-18" value="" style="edgeStyle=none;curved=1;rounded=0;orthogonalLoop=1;jettySize=auto;html=1;fontSize=12;startSize=8;endSize=8;" parent="WIyWlLk6GJQsqaUBKTNV-1" source="H0IVHoSx6dTqdpk7Pmhy-16" target="H0IVHoSx6dTqdpk7Pmhy-17" edge="1">
          <mxGeometry relative="1" as="geometry" />
        </mxCell>
        <mxCell id="H0IVHoSx6dTqdpk7Pmhy-16" value="KeyboardInterrupt" style="ellipse;whiteSpace=wrap;html=1;fontSize=16;" parent="WIyWlLk6GJQsqaUBKTNV-1" vertex="1">
          <mxGeometry x="625" y="110" width="120" height="80" as="geometry" />
        </mxCell>
        <mxCell id="H0IVHoSx6dTqdpk7Pmhy-20" value="" style="edgeStyle=none;curved=1;rounded=0;orthogonalLoop=1;jettySize=auto;html=1;fontSize=12;startSize=8;endSize=8;" parent="WIyWlLk6GJQsqaUBKTNV-1" source="H0IVHoSx6dTqdpk7Pmhy-17" target="H0IVHoSx6dTqdpk7Pmhy-19" edge="1">
          <mxGeometry relative="1" as="geometry" />
        </mxCell>
        <mxCell id="H0IVHoSx6dTqdpk7Pmhy-17" value="KeyborardInterrupt betätigt" style="rounded=1;whiteSpace=wrap;html=1;fontSize=16;" parent="WIyWlLk6GJQsqaUBKTNV-1" vertex="1">
          <mxGeometry x="610" y="245" width="150" height="50" as="geometry" />
        </mxCell>
        <mxCell id="H0IVHoSx6dTqdpk7Pmhy-24" value="" style="edgeStyle=none;curved=1;rounded=0;orthogonalLoop=1;jettySize=auto;html=1;fontSize=12;startSize=8;endSize=8;" parent="WIyWlLk6GJQsqaUBKTNV-1" source="H0IVHoSx6dTqdpk7Pmhy-19" target="H0IVHoSx6dTqdpk7Pmhy-23" edge="1">
          <mxGeometry relative="1" as="geometry" />
        </mxCell>
        <mxCell id="H0IVHoSx6dTqdpk7Pmhy-19" value="Speichere alle Schiffe der Spieler in data" style="rounded=1;whiteSpace=wrap;html=1;fontSize=16;" parent="WIyWlLk6GJQsqaUBKTNV-1" vertex="1">
          <mxGeometry x="610" y="335" width="150" height="60" as="geometry" />
        </mxCell>
        <mxCell id="H0IVHoSx6dTqdpk7Pmhy-21" value="Die Werte aus Data in die dazugehörigen Variablen schreiben" style="rounded=1;whiteSpace=wrap;html=1;fontSize=16;" parent="WIyWlLk6GJQsqaUBKTNV-1" vertex="1">
          <mxGeometry x="295" y="575" width="145" height="85.5" as="geometry" />
        </mxCell>
        <mxCell id="H0IVHoSx6dTqdpk7Pmhy-26" value="" style="edgeStyle=none;curved=1;rounded=0;orthogonalLoop=1;jettySize=auto;html=1;fontSize=12;startSize=8;endSize=8;" parent="WIyWlLk6GJQsqaUBKTNV-1" source="H0IVHoSx6dTqdpk7Pmhy-23" target="H0IVHoSx6dTqdpk7Pmhy-25" edge="1">
          <mxGeometry relative="1" as="geometry" />
        </mxCell>
        <mxCell id="H0IVHoSx6dTqdpk7Pmhy-23" value="Speichere die Spielernamen in data" style="rounded=1;whiteSpace=wrap;html=1;fontSize=16;" parent="WIyWlLk6GJQsqaUBKTNV-1" vertex="1">
          <mxGeometry x="610" y="430" width="150" height="60" as="geometry" />
        </mxCell>
        <mxCell id="H0IVHoSx6dTqdpk7Pmhy-28" value="" style="edgeStyle=none;curved=1;rounded=0;orthogonalLoop=1;jettySize=auto;html=1;fontSize=12;startSize=8;endSize=8;" parent="WIyWlLk6GJQsqaUBKTNV-1" source="H0IVHoSx6dTqdpk7Pmhy-25" target="H0IVHoSx6dTqdpk7Pmhy-27" edge="1">
          <mxGeometry relative="1" as="geometry" />
        </mxCell>
        <mxCell id="H0IVHoSx6dTqdpk7Pmhy-25" value="Speichere die boards in data" style="rounded=1;whiteSpace=wrap;html=1;fontSize=16;" parent="WIyWlLk6GJQsqaUBKTNV-1" vertex="1">
          <mxGeometry x="610" y="525" width="150" height="50" as="geometry" />
        </mxCell>
        <mxCell id="H0IVHoSx6dTqdpk7Pmhy-30" value="" style="edgeStyle=none;curved=1;rounded=0;orthogonalLoop=1;jettySize=auto;html=1;fontSize=12;startSize=8;endSize=8;" parent="WIyWlLk6GJQsqaUBKTNV-1" source="H0IVHoSx6dTqdpk7Pmhy-27" target="H0IVHoSx6dTqdpk7Pmhy-29" edge="1">
          <mxGeometry relative="1" as="geometry" />
        </mxCell>
        <mxCell id="H0IVHoSx6dTqdpk7Pmhy-27" value="Speichere data in die Json-Datei" style="rounded=1;whiteSpace=wrap;html=1;fontSize=16;" parent="WIyWlLk6GJQsqaUBKTNV-1" vertex="1">
          <mxGeometry x="610" y="615" width="150" height="50" as="geometry" />
        </mxCell>
        <mxCell id="H0IVHoSx6dTqdpk7Pmhy-29" value="Verabschiedung bevor sich das Programm schließt" style="rounded=1;whiteSpace=wrap;html=1;fontSize=16;" parent="WIyWlLk6GJQsqaUBKTNV-1" vertex="1">
          <mxGeometry x="610" y="705" width="150" height="60" as="geometry" />
        </mxCell>
      </root>
    </mxGraphModel>
  </diagram>
</mxfile>
